<?xml version="1.0" standalone="no"?>
<!DOCTYPE svg PUBLIC "-//W3C//DTD SVG 20010904//EN"
 "http://www.w3.org/TR/2001/REC-SVG-20010904/DTD/svg10.dtd">
<svg version="1.0" xmlns="http://www.w3.org/2000/svg"
 width="400.000000pt" height="400.000000pt" viewBox="0 0 400.000000 400.000000"
 preserveAspectRatio="xMidYMid meet">
<metadata>
Created by potrace 1.11, written by Peter Selinger 2001-2013
</metadata>
<g transform="translate(0.000000,400.000000) scale(0.100000,-0.100000)"
fill="#000000" stroke="none">
<path d="M1820 2969 c-112 -15 -166 -28 -223 -53 -57 -26 -142 -80 -173 -110
-9 -9 -31 -28 -51 -43 -19 -15 -52 -52 -73 -82 -21 -31 -52 -70 -69 -88 -17
-18 -31 -35 -31 -39 0 -3 -13 -25 -29 -49 -26 -38 -42 -87 -81 -235 -21 -83
-48 -185 -55 -207 -5 -17 -3 -23 8 -23 22 0 27 -23 22 -108 -4 -72 -2 -80 20
-107 14 -15 25 -36 25 -47 0 -10 4 -18 8 -18 10 0 37 -61 52 -119 7 -26 24
-55 41 -70 16 -14 29 -31 29 -37 0 -7 14 -17 30 -23 29 -10 40 -34 20 -46 -18
-11 -11 -37 8 -31 16 5 22 -5 42 -64 17 -52 28 -70 41 -70 10 0 21 -4 24 -10
12 -20 25 -10 25 20 0 29 -39 162 -59 198 -17 31 -30 103 -19 95 8 -4 8 11 2
48 -4 30 -7 111 -7 181 2 104 5 130 19 146 17 21 17 21 46 -6 22 -21 27 -33
23 -54 -9 -40 26 -71 82 -71 35 0 41 -3 31 -14 -8 -10 -7 -18 7 -33 24 -26 68
-34 112 -19 21 7 48 12 61 11 13 -1 30 5 38 13 9 8 24 15 34 15 31 0 52 55 58
152 l5 88 -31 0 c-17 0 -32 5 -34 11 -5 16 -75 29 -158 29 -83 0 -120 -7 -120
-23 0 -15 -32 -36 -57 -37 -13 0 -31 -8 -41 -18 -18 -18 -62 -27 -62 -12 0 5
12 18 27 29 14 12 23 25 18 29 -4 4 -10 1 -12 -5 -3 -7 -11 -13 -19 -13 -10 0
-4 10 15 28 25 23 31 38 37 92 4 36 7 74 7 85 1 11 11 38 24 60 13 22 29 52
36 68 7 16 17 25 25 22 8 -3 19 8 27 29 8 19 19 38 25 41 6 4 7 11 4 17 -5 8
-1 9 12 4 32 -13 39 -12 36 5 -4 29 33 45 111 48 11 1 15 5 11 13 -5 7 -2 9 9
5 9 -3 18 0 21 9 3 8 17 14 31 14 14 0 28 7 31 15 4 8 10 12 15 9 5 -3 42 2
82 11 39 9 125 17 190 19 99 2 121 5 145 22 44 33 61 36 54 11 -3 -12 -9 -25
-15 -28 -15 -11 35 -49 64 -49 15 0 31 -5 35 -12 4 -7 3 -8 -4 -4 -7 4 -17 4
-24 0 -8 -5 -6 -10 8 -15 17 -7 17 -8 2 -8 -19 -1 -24 -16 -9 -25 15 -10 89
-170 95 -208 4 -21 13 -44 21 -52 10 -9 11 -17 5 -21 -6 -4 -4 -17 6 -37 11
-20 12 -33 5 -37 -9 -6 -3 -62 26 -226 3 -16 17 -40 31 -52 22 -20 24 -28 19
-67 -7 -51 10 -74 19 -26 4 17 11 33 17 37 5 3 7 2 4 -3 -3 -6 -2 -16 4 -24 7
-12 9 -12 9 3 0 11 7 34 16 53 14 29 15 42 5 87 -7 28 -14 63 -15 77 -5 36 -5
37 -15 21 -7 -10 -12 -2 -20 30 -10 41 -10 38 -7 -36 2 -44 1 -69 -1 -55 -3
14 -8 30 -13 35 -4 6 -11 26 -15 45 -4 19 -11 40 -15 45 -12 17 -20 63 -14 80
5 13 8 14 15 3 6 -8 9 -1 9 21 0 49 9 33 19 -35 l10 -59 -3 55 c-4 60 -29 161
-38 145 -2 -5 -3 -4 -1 3 1 8 3 21 3 30 1 9 8 -3 16 -28 16 -45 42 -85 30 -45
-3 11 -15 63 -27 115 -11 52 -29 113 -39 135 -10 22 -21 52 -24 66 -5 21 -15
29 -53 40 -26 7 -59 12 -73 11 -23 -1 -24 -1 -7 13 16 11 26 11 63 0 24 -7 46
-10 49 -5 2 4 -17 29 -43 55 -28 29 -42 50 -34 52 6 3 12 9 12 15 0 7 -17 9
-45 6 -42 -5 -45 -4 -45 17 0 25 -40 48 -140 80 -30 10 -62 24 -71 31 -17 15
-100 41 -134 42 -11 1 -42 3 -70 5 -27 2 -75 0 -105 -4z m163 -36 c-13 -2 -33
-2 -45 0 -13 2 -3 4 22 4 25 0 35 -2 23 -4z m44 -39 c-3 -3 -12 -4 -19 -1 -8
3 -5 6 6 6 11 1 17 -2 13 -5z m53 -156 c0 -6 -7 -5 -15 2 -8 7 -15 17 -15 22
0 6 7 5 15 -2 8 -7 15 -17 15 -22z m490 -456 c0 -15 -2 -15 -10 -2 -13 20 -13
33 0 25 6 -3 10 -14 10 -23z"/>
<path d="M2644 2343 c3 -18 9 -48 13 -65 3 -18 7 -42 8 -53 1 -11 2 -31 3 -44
1 -18 5 -22 13 -14 8 8 8 17 0 31 -15 28 -14 45 2 39 10 -4 7 14 -10 61 -28
76 -38 92 -29 45z"/>
<path d="M2621 2204 c0 -11 3 -14 6 -6 3 7 2 16 -1 19 -3 4 -6 -2 -5 -13z"/>
<path d="M2113 2119 c-29 -11 -29 -26 -2 -34 17 -6 18 -9 8 -16 -7 -4 -10 -11
-6 -15 9 -9 -22 -44 -40 -44 -9 0 -13 -14 -13 -45 0 -33 4 -45 15 -45 8 0 14
-5 13 -12 -2 -6 10 -16 25 -22 32 -12 63 2 61 27 -1 8 4 14 10 14 35 -1 46 6
52 28 7 28 31 34 40 10 7 -17 40 -20 49 -5 4 6 -20 22 -56 38 -60 26 -62 27
-33 33 24 5 17 7 -34 14 -71 9 -79 27 -14 36 50 6 59 14 41 31 -16 15 -84 19
-116 7z"/>
<path d="M2711 1985 c0 -11 4 -29 9 -40 l9 -20 0 20 c0 11 -4 29 -9 40 l-9 20
0 -20z"/>
<path d="M2615 1760 c-3 -5 -1 -10 4 -10 6 0 11 5 11 10 0 6 -2 10 -4 10 -3 0
-8 -4 -11 -10z"/>
<path d="M1770 1710 c0 -7 -13 -8 -35 -4 -28 5 -35 3 -35 -9 0 -14 -47 -71
-60 -72 -3 0 -15 -6 -27 -13 -19 -10 -21 -16 -11 -31 6 -11 8 -26 3 -37 -4
-11 -9 -27 -10 -37 -1 -10 -15 -29 -31 -42 -24 -20 -27 -25 -15 -39 16 -19 37
-21 45 -3 3 8 8 7 16 -5 15 -25 31 -22 70 12 31 26 70 40 70 25 0 -3 -16 -19
-35 -36 -19 -17 -35 -35 -35 -41 0 -19 113 -134 150 -151 14 -7 29 -26 34 -44
8 -24 17 -34 39 -39 30 -6 65 14 40 23 -21 8 -60 45 -41 39 24 -7 98 31 99 52
1 9 1 25 0 35 -2 12 5 17 23 17 14 0 28 5 31 11 4 6 13 8 20 5 15 -5 52 31 41
41 -4 4 -17 1 -29 -7 -31 -20 -233 -25 -240 -6 -4 10 6 13 36 14 23 0 47 1 52
2 12 3 34 7 58 9 23 2 22 17 -3 24 -26 7 -16 37 13 37 36 0 8 14 -41 21 -46 6
-47 6 -15 14 44 10 50 32 10 41 -18 4 -35 7 -39 6 -5 -1 -8 8 -8 21 0 18 2 19
10 7 5 -8 10 -10 10 -5 0 17 -14 30 -35 31 -11 1 -35 7 -53 12 -19 6 -30 7
-27 1 7 -10 -15 -12 -39 -3 -22 9 -20 50 4 74 24 24 27 60 5 60 -8 0 -15 -5
-15 -10z m224 -425 c3 -8 1 -15 -4 -15 -6 0 -10 7 -10 15 0 8 2 15 4 15 2 0 6
-7 10 -15z"/>
<path d="M1870 1651 c0 -12 6 -21 16 -21 9 0 14 7 12 17 -5 25 -28 28 -28 4z"/>
<path d="M2527 1543 c-2 -4 -7 -28 -11 -53 l-6 -45 22 43 c16 30 19 45 11 53
-6 6 -13 7 -16 2z"/>
<path d="M2088 1408 c9 -9 15 -9 24 0 9 9 7 12 -12 12 -19 0 -21 -3 -12 -12z"/>
<path d="M2142 1413 c-10 -4 -10 -8 -1 -20 10 -12 10 -17 -2 -24 -10 -8 -7 -8
11 -4 24 7 50 31 50 47 0 9 -37 10 -58 1z"/>
<path d="M372 1240 c0 -14 2 -19 5 -12 2 6 2 18 0 25 -3 6 -5 1 -5 -13z"/>
<path d="M330 1215 c-2 -5 -4 -30 -5 -55 -1 -25 -7 -62 -13 -83 -6 -24 -9
-153 -8 -348 l3 -309 -43 -21 c-43 -22 -54 -40 -54 -91 0 -19 -5 -28 -16 -28
-9 0 -14 -6 -11 -12 2 -7 9 -12 15 -11 5 1 8 -7 5 -17 -7 -26 -15 -25 -32 2
-12 19 -14 20 -23 5 -5 -10 -6 -22 -3 -27 3 -6 -1 -7 -9 -4 -26 10 -18 -10 10
-23 22 -10 24 -10 19 8 -7 20 9 27 20 8 4 -5 18 -14 31 -19 16 -6 24 -17 24
-32 l-1 -23 -20 24 c-11 13 -21 22 -22 20 -22 -38 -27 -54 -28 -81 -1 -23 -3
-26 -6 -11 -2 12 -12 24 -21 26 -15 4 -15 5 -1 6 23 1 21 45 -3 60 -20 12 -38
7 -38 -11 0 -5 7 -8 14 -5 10 4 13 1 9 -9 -3 -7 -9 -14 -14 -14 -4 0 -6 -7 -3
-15 4 -9 0 -15 -10 -15 -18 0 -22 -16 -4 -22 6 -2 8 -10 4 -17 -5 -7 -14 -10
-21 -7 -8 3 -14 -6 -17 -25 -3 -16 -2 -31 0 -34 3 -2 256 -5 563 -5 l558 0 -2
33 c-1 17 -8 37 -16 43 -9 7 -10 13 -3 17 5 4 8 16 5 27 -7 25 12 26 26 3 9
-15 10 -14 11 10 0 15 6 27 13 27 8 1 6 5 -4 13 -9 7 -20 28 -24 47 -8 39 -20
50 -51 50 -28 0 -32 34 -33 225 -1 146 7 206 26 212 19 7 24 -61 8 -101 -10
-24 -13 -42 -7 -49 6 -7 12 -21 15 -32 2 -11 5 5 6 35 1 30 6 72 10 94 6 25 6
47 -1 62 -15 32 5 56 40 47 20 -5 30 0 46 18 12 14 40 37 62 52 32 22 48 43
70 95 34 82 63 132 75 132 5 0 9 7 9 16 0 12 -6 15 -22 10 -13 -4 -68 -17
-123 -30 -174 -41 -240 -72 -290 -137 -81 -104 -74 -99 -127 -99 -55 0 -79
-10 -123 -50 -35 -32 -71 -43 -97 -29 -23 13 -68 -12 -68 -38 0 -30 -61 -123
-80 -123 -21 0 -50 -36 -50 -62 0 -10 5 -18 12 -18 9 0 9 -3 0 -12 -10 -10
-15 -10 -22 1 -6 11 -12 12 -22 4 -7 -5 -26 -13 -43 -16 l-30 -6 7 142 c10
188 10 357 -1 547 -3 45 -3 45 -13 15 l-11 -30 -13 40 c-6 22 -13 36 -14 30z
m-3 -167 c-3 -7 -5 -2 -5 12 0 14 2 19 5 13 2 -7 2 -19 0 -25z m0 -60 c-3 -7
-5 -2 -5 12 0 14 2 19 5 13 2 -7 2 -19 0 -25z m0 -340 c-3 -8 -6 -5 -6 6 -1
11 2 17 5 13 3 -3 4 -12 1 -19z m0 -120 c-3 -7 -5 -2 -5 12 0 14 2 19 5 13 2
-7 2 -19 0 -25z m43 23 c0 -6 -4 -13 -10 -16 -5 -3 -10 1 -10 9 0 9 5 16 10
16 6 0 10 -4 10 -9z m351 -164 c-10 -9 -11 -8 -5 6 3 10 9 15 12 12 3 -3 0
-11 -7 -18z m44 -67 c3 -5 1 -10 -4 -10 -6 0 -11 5 -11 10 0 6 2 10 4 10 3 0
8 -4 11 -10z m-25 -36 c0 -2 -7 -4 -15 -4 -8 0 -15 4 -15 10 0 5 7 7 15 4 8
-4 15 -8 15 -10z m-365 -24 c3 -5 -1 -10 -9 -10 -9 0 -16 5 -16 10 0 6 4 10 9
10 6 0 13 -4 16 -10z m2 -51 c-11 -18 -12 -18 -19 -1 -11 27 -9 30 11 25 17
-4 18 -8 8 -24z m-1 -74 c-3 -8 0 -15 6 -15 6 0 9 -2 6 -5 -3 -4 -18 -3 -33 1
-26 7 -27 8 -10 20 25 18 39 18 31 -1z m54 5 c0 -5 -7 -7 -15 -4 -8 4 -15 8
-15 10 0 2 7 4 15 4 8 0 15 -4 15 -10z m0 -30 c0 -5 -7 -10 -15 -10 -8 0 -15
5 -15 10 0 6 7 10 15 10 8 0 15 -4 15 -10z m-44 -28 c-16 -2 -32 0 -37 5 -5 5
7 7 29 4 34 -5 35 -6 8 -9z m-201 -22 c-3 -5 -12 -10 -18 -10 -7 0 -6 4 3 10
19 12 23 12 15 0z"/>
<path d="M1760 1195 c0 -9 40 -45 50 -45 18 0 10 22 -10 27 -11 3 -20 9 -20
14 0 5 -4 9 -10 9 -5 0 -10 -2 -10 -5z"/>
<path d="M298 1142 c-22 -4 -23 -16 -4 -31 11 -10 16 -8 21 9 8 25 6 28 -17
22z"/>
<path d="M1470 1130 c-11 -7 -12 -11 0 -25 16 -20 36 -4 23 19 -5 10 -13 12
-23 6z"/>
<path d="M2460 1120 c0 -6 22 -46 50 -90 27 -43 59 -107 70 -141 21 -61 21
-66 6 -175 -10 -73 -28 -145 -50 -204 -19 -51 -32 -98 -29 -106 3 -8 1 -14 -4
-14 -8 0 -19 -28 -39 -97 -2 -7 -10 -13 -19 -13 -8 0 -15 -9 -15 -19 0 -11 -4
-23 -10 -26 -16 -10 -12 32 5 49 8 8 15 22 15 31 0 8 7 18 15 21 8 4 15 15 15
25 0 10 -7 19 -15 19 -24 0 -55 -37 -83 -99 -14 -31 -30 -59 -36 -64 -7 -4 -2
-9 12 -13 30 -9 28 -35 -7 -64 l-29 -25 20 -32 20 -33 -31 0 c-21 0 -31 -5
-31 -15 0 -18 -17 -20 -33 -3 -52 55 -166 197 -171 215 -9 29 -30 35 -44 12
-7 -10 -8 -19 -3 -19 5 0 13 -10 16 -21 10 -32 58 -98 71 -99 6 0 35 -27 63
-60 l53 -60 196 2 c182 3 197 4 196 21 -2 14 1 15 13 6 11 -10 11 -14 1 -20
-7 -5 66 -8 162 -8 118 0 170 3 158 9 -14 8 -19 53 -7 68 1 1 2 7 3 14 0 6 7
13 14 16 8 2 12 -9 12 -36 0 -72 0 -72 117 -72 77 0 103 3 102 13 -3 26 1 47
10 47 5 0 11 -12 13 -28 l3 -27 233 -3 c202 -2 232 0 232 13 0 8 4 15 8 15 4
0 13 13 19 30 6 16 8 29 5 28 -4 0 -18 0 -31 1 -20 1 -21 3 -11 16 7 8 16 12
21 9 5 -3 9 0 9 6 0 7 8 9 22 5 18 -6 20 -4 14 11 -4 11 -9 32 -12 48 -6 45
-15 67 -25 61 -11 -8 -11 -3 0 29 8 18 6 28 -5 37 -13 10 -17 10 -25 -2 -12
-19 -11 -32 1 -24 6 3 7 -1 4 -9 -9 -25 -23 -19 -20 8 3 21 -3 26 -38 36 -23
6 -48 13 -56 16 -8 3 -5 -1 8 -9 12 -7 21 -15 19 -18 -2 -2 -7 -17 -11 -34 -5
-22 -4 -26 3 -15 8 11 9 4 7 -25 -2 -25 -9 -40 -17 -41 -12 -1 -41 -11 -59
-20 -14 -7 -2 50 13 60 10 8 15 26 14 57 -2 35 2 48 20 62 27 22 30 39 6 30
-10 -3 -15 -2 -10 2 4 5 0 17 -10 27 -9 10 -14 21 -10 24 3 3 2 17 -3 29 -6
16 -5 25 3 29 8 3 6 8 -6 16 -9 6 -15 15 -12 21 9 13 -4 11 -19 -4 -7 -7 -11
-18 -8 -26 3 -8 -1 -12 -9 -9 -9 3 -14 19 -14 44 0 54 -14 66 -62 55 -30 -7
-33 -9 -12 -10 35 -1 53 -24 45 -56 -8 -30 -20 -31 -69 -5 -21 11 -42 18 -47
15 -4 -3 -16 -2 -25 1 -10 4 -13 9 -6 13 6 4 -2 14 -19 25 -26 15 -30 15 -30
2 0 -9 7 -16 16 -16 14 0 14 -3 4 -15 -16 -19 -30 -19 -30 0 0 8 -4 15 -10 15
-5 0 -10 9 -10 20 0 11 -7 20 -15 20 -8 0 -15 -4 -15 -10 0 -5 -4 -10 -10 -10
-5 0 -10 7 -10 15 0 9 -9 15 -21 15 -18 0 -19 2 -9 15 10 12 10 15 -1 16 -8 0
-5 4 6 9 17 7 15 9 -13 9 -22 1 -35 -4 -39 -16 -7 -20 -40 -69 -60 -91 -7 -7
-13 -22 -13 -33 0 -10 -4 -19 -9 -19 -4 0 -21 -18 -36 -40 -17 -25 -34 -39
-42 -36 -8 3 -11 1 -8 -4 3 -5 -1 -23 -10 -40 -14 -28 -14 -32 0 -46 8 -8 15
-29 15 -45 0 -17 4 -28 9 -25 10 6 33 -135 24 -144 -3 -3 -8 1 -10 8 -3 6 -9
10 -14 6 -5 -3 -9 5 -10 18 -3 75 -7 108 -18 146 -6 23 -16 42 -21 42 -5 0
-19 -12 -31 -27 -12 -16 -19 -20 -16 -11 4 12 2 15 -9 11 -17 -6 -18 -15 -4
-29 8 -8 6 -15 -5 -24 -8 -7 -15 -19 -15 -26 0 -8 -4 -14 -8 -14 -5 0 -15 -12
-23 -28 -21 -41 -91 -116 -111 -117 -9 -1 -15 2 -12 7 4 5 12 7 20 4 10 -4 14
2 14 19 0 14 5 24 11 22 6 -1 14 4 16 11 3 6 0 12 -6 12 -6 0 -11 7 -11 15 0
10 10 15 28 15 23 1 25 2 11 13 -15 11 -15 14 -1 27 9 8 25 13 35 12 12 -2 17
1 13 7 -4 6 -16 11 -26 11 -31 0 -50 11 -50 31 0 13 -5 16 -16 12 -8 -3 -13
-12 -10 -20 3 -8 1 -11 -4 -8 -15 9 -12 45 3 45 8 0 19 12 26 26 11 24 10 26
-9 21 -23 -6 -26 6 -7 25 17 16 9 51 -9 44 -18 -7 -18 2 0 19 7 8 16 11 20 8
3 -4 6 6 6 20 0 27 22 38 35 17 3 -5 1 -10 -6 -10 -7 0 -4 -6 7 -14 18 -14 14
-31 -9 -31 -5 0 -12 -6 -15 -13 -2 -7 2 -10 12 -6 9 3 16 1 16 -5 0 -6 -6 -11
-14 -11 -9 0 -12 -7 -9 -20 4 -14 13 -19 35 -17 26 2 29 5 24 30 -4 19 -1 27
9 27 20 0 29 20 16 33 -13 13 -15 47 -2 47 5 0 12 -7 15 -16 4 -9 9 -14 13
-11 3 4 13 2 20 -5 16 -13 33 4 33 35 0 9 5 17 10 17 6 0 10 9 10 20 0 11 5
20 11 20 6 0 8 -9 3 -22 -4 -13 -8 -31 -9 -40 -1 -9 -13 -32 -28 -50 -15 -18
-25 -38 -23 -45 3 -6 0 -14 -7 -17 -7 -2 -2 -5 11 -5 12 -1 21 4 20 11 -2 7 2
12 9 11 6 -1 15 12 19 30 8 40 44 90 44 62 0 -17 1 -17 20 0 11 10 20 26 20
37 0 10 3 18 8 18 4 0 16 19 26 42 10 24 22 45 27 48 4 3 11 24 15 46 l6 41
-42 6 c-28 3 -53 16 -74 35 -41 39 -79 59 -84 43 -2 -6 -8 -11 -14 -11 -6 0
-7 7 -4 16 4 11 -1 18 -14 21 -11 3 -20 9 -20 14 0 12 -39 45 -77 67 -17 9
-52 44 -79 77 -58 72 -97 106 -138 122 -39 14 -86 16 -86 3z m395 -300 c3 -5
1 -10 -4 -10 -6 0 -11 5 -11 10 0 6 2 10 4 10 3 0 8 -4 11 -10z m160 -110 c3
-5 1 -10 -4 -10 -6 0 -11 5 -11 10 0 6 2 10 4 10 3 0 8 -4 11 -10z m0 -39 c3
-5 1 -12 -5 -16 -5 -3 -10 1 -10 9 0 18 6 21 15 7z m-185 -47 c0 -7 -27 -34
-34 -34 -3 0 -6 9 -6 20 0 13 7 20 20 20 11 0 20 -3 20 -6z m180 -3 c0 -5 -7
-11 -15 -15 -15 -5 -20 5 -8 17 9 10 23 9 23 -2z m118 -55 c-2 -1 -13 -9 -24
-19 -21 -17 -21 -17 -17 6 4 19 10 23 24 20 11 -3 18 -6 17 -7z m-138 -19 c0
-8 -3 -17 -7 -20 -9 -9 -34 13 -27 24 8 14 34 11 34 -4z m175 -25 c6 -22 5
-23 -17 -17 -31 10 -31 10 -18 35 13 24 24 18 35 -18z m35 28 c0 -5 -2 -10 -4
-10 -3 0 -8 5 -11 10 -3 6 -1 10 4 10 6 0 11 -4 11 -10z m-425 -30 c3 -5 -3
-10 -14 -10 -12 0 -21 5 -21 10 0 6 6 10 14 10 8 0 18 -4 21 -10z m305 -22 c0
-18 -2 -20 -9 -8 -6 8 -7 18 -5 22 9 14 14 9 14 -14z m290 0 c0 -17 -3 -19 -9
-9 -5 7 -15 17 -22 22 -10 6 -8 9 9 9 16 0 22 -6 22 -22z m46 -19 c3 -6 0 -15
-7 -20 -22 -14 -36 -10 -16 5 14 11 15 15 5 19 -9 4 -9 6 -1 6 6 1 15 -4 19
-10z m-212 -5 c26 -10 18 -24 -14 -24 -29 0 -38 9 -23 23 8 9 17 9 37 1z m286
-4 c12 -8 11 -10 -7 -10 -13 0 -23 5 -23 10 0 13 11 13 30 0z m0 -30 c0 -13
-11 -13 -30 0 -12 8 -11 10 8 10 12 0 22 -4 22 -10z m-296 -11 c1 -2 -1 -15
-5 -29 l-7 -25 -7 23 c-4 12 -14 22 -22 22 -9 0 -11 -5 -7 -12 5 -7 8 -24 8
-37 0 -21 -6 -25 -33 -29 -27 -3 -33 0 -28 12 9 22 -2 46 -22 47 -9 0 -3 5 13
9 16 5 34 7 40 4 6 -3 3 1 -7 10 -17 13 -15 14 28 11 25 -1 47 -4 49 -6z m356
-59 c0 -5 -5 -10 -11 -10 -5 0 -7 5 -4 10 3 6 8 10 11 10 2 0 4 -4 4 -10z
m-382 -59 c3 -8 -1 -12 -9 -9 -7 2 -15 10 -17 17 -3 8 1 12 9 9 7 -2 15 -10
17 -17z m62 5 c0 -3 -4 -8 -10 -11 -5 -3 -10 -1 -10 4 0 6 5 11 10 11 6 0 10
-2 10 -4z m-560 -12 c0 -3 -7 -12 -15 -20 -16 -17 -18 -14 -9 10 6 15 24 23
24 10z m973 -11 c-7 -2 -19 -2 -25 0 -7 3 -2 5 12 5 14 0 19 -2 13 -5z m-465
-9 c21 -6 32 -34 14 -34 -12 0 -72 30 -72 36 0 6 31 5 58 -2z m-523 -44 c3 -5
1 -10 -4 -10 -6 0 -11 5 -11 10 0 6 2 10 4 10 3 0 8 -4 11 -10z m-265 -10 c8
-5 11 -12 8 -16 -10 -9 -38 3 -38 16 0 12 10 13 30 0z m820 -5 c0 -18 -17 -20
-23 -2 -4 10 -7 10 -18 0 -15 -15 -39 -17 -39 -4 0 10 22 18 58 20 13 1 22 -5
22 -14z m-510 -14 c0 -14 -18 -23 -30 -16 -6 4 -8 11 -5 16 8 12 35 12 35 0z
m-61 -43 c-1 -24 -8 -55 -15 -70 -8 -15 -14 -38 -14 -52 0 -14 -4 -27 -9 -31
-19 -11 -21 16 -6 67 9 29 21 70 27 91 6 20 13 37 15 37 1 0 2 -19 2 -42z
m545 35 c4 -5 12 -9 17 -9 5 -1 14 -2 19 -3 16 -2 11 -21 -6 -21 -9 0 -12 -5
-8 -12 5 -8 2 -9 -10 -5 -10 4 -21 7 -24 7 -4 0 -8 11 -8 25 -2 25 6 32 20 18z
m396 -33 c0 -5 -5 -10 -11 -10 -5 0 -7 5 -4 10 3 6 8 10 11 10 2 0 4 -4 4 -10z
m-400 -30 c0 -5 14 -10 30 -10 30 0 40 -13 20 -25 -8 -5 -8 -11 0 -20 8 -10 4
-14 -17 -18 -36 -7 -41 -1 -17 18 19 15 19 16 -1 14 -34 -2 -41 1 -25 12 11 8
12 12 3 16 -15 6 -17 23 -3 23 6 0 10 -4 10 -10z m380 1 c0 -13 -29 -35 -37
-28 -7 8 15 37 28 37 5 0 9 -4 9 -9z m-786 -54 c5 -27 4 -37 -3 -32 -6 3 -11
22 -11 42 0 44 5 41 14 -10z m643 -19 c-3 -8 -6 -5 -6 6 -1 11 2 17 5 13 3 -3
4 -12 1 -19z m40 -10 c-3 -7 -5 -2 -5 12 0 14 2 19 5 13 2 -7 2 -19 0 -25z
m-34 -34 c-4 -10 -9 -12 -15 -6 -12 12 -1 35 12 27 5 -3 6 -13 3 -21z"/>
<path d="M1589 1097 c6 -16 11 -42 11 -58 0 -24 -4 -29 -26 -29 -20 0 -24 4
-19 19 4 13 -3 29 -21 48 l-27 28 7 -28 c4 -18 2 -35 -5 -43 -9 -11 -9 -18 -1
-26 7 -7 12 -20 12 -30 0 -10 4 -18 9 -18 14 0 35 -71 23 -79 -5 -3 -11 -15
-13 -25 -11 -53 -53 -8 -52 54 1 19 -1 27 -4 17 -9 -35 -23 -4 -23 54 0 37 -4
59 -11 59 -20 0 -1 -147 24 -194 12 -22 24 -43 27 -46 3 -3 13 -22 23 -43 24
-54 86 -134 143 -188 105 -97 311 -251 368 -272 26 -10 98 46 191 148 102 111
125 143 175 245 23 47 46 93 52 104 5 10 12 44 14 75 3 39 1 48 -4 31 -57
-166 -285 -404 -409 -424 -57 -10 -109 14 -118 56 -4 16 -13 32 -21 35 -19 7
-18 39 2 47 23 9 26 8 18 -6 -5 -9 -2 -9 9 1 9 7 17 10 17 7 0 -4 9 -2 20 4
26 14 25 34 -2 63 -65 68 -98 109 -98 122 0 8 -9 15 -20 15 -11 0 -20 -4 -20
-10 0 -5 -4 -10 -10 -10 -6 0 -5 10 2 25 10 22 15 24 52 19 31 -5 45 -2 55 10
7 9 10 16 5 16 -4 0 1 6 11 14 19 13 18 15 -5 41 -61 66 -81 78 -94 56 -14
-21 -116 5 -116 30 0 6 -5 9 -12 7 -13 -5 -86 44 -126 84 l-23 22 10 -27z"/>
<path d="M1880 1055 c-11 -13 -11 -19 3 -33 20 -19 41 -5 35 24 -4 24 -22 28
-38 9z"/>
<path d="M2462 1030 c0 -14 4 -36 8 -50 l8 -25 0 25 c0 14 -4 36 -8 50 l-8 25
0 -25z"/>
<path d="M1501 890 c0 -8 4 -22 9 -30 12 -18 12 -2 0 25 -6 13 -9 15 -9 5z"/>
<path d="M3195 639 c-9 -14 -2 -20 14 -10 8 6 9 11 3 15 -6 3 -14 1 -17 -5z"/>
<path d="M3320 610 c0 -5 7 -10 15 -10 8 0 15 5 15 10 0 6 -7 10 -15 10 -8 0
-15 -4 -15 -10z"/>
<path d="M3361 613 c0 -6 -4 -20 -7 -30 -5 -14 -4 -15 5 -7 7 7 11 20 8 30 -3
11 -5 14 -6 7z"/>
<path d="M3420 545 c0 -8 5 -15 10 -15 6 0 10 7 10 15 0 8 -4 15 -10 15 -5 0
-10 -7 -10 -15z"/>
<path d="M1325 510 c3 -5 10 -10 16 -10 5 0 9 5 9 10 0 6 -7 10 -16 10 -8 0
-12 -4 -9 -10z"/>
<path d="M3620 364 c0 -8 5 -12 10 -9 6 3 10 10 10 16 0 5 -4 9 -10 9 -5 0
-10 -7 -10 -16z"/>
<path d="M2806 349 c-11 -11 -27 -17 -37 -14 -18 6 -35 -20 -19 -30 5 -3 7
-12 3 -20 -3 -10 1 -15 12 -15 11 0 15 5 12 14 -6 16 16 40 26 29 4 -3 7 -1 7
5 0 7 13 12 29 12 16 0 34 7 41 15 11 13 10 14 -3 10 -8 -4 -18 -2 -22 4 -9
16 -27 12 -49 -10z"/>
<path d="M1996 274 c-9 -24 -7 -27 9 -10 17 17 19 26 6 26 -5 0 -12 -7 -15
-16z"/>
<path d="M2807 273 c-4 -3 -7 -11 -7 -17 0 -6 5 -5 12 2 6 6 9 14 7 17 -3 3
-9 2 -12 -2z"/>
<path d="M3735 270 c-3 -5 -1 -10 4 -10 6 0 11 5 11 10 0 6 -2 10 -4 10 -3 0
-8 -4 -11 -10z"/>
<path d="M3555 220 c-3 -5 -1 -10 4 -10 6 0 11 5 11 10 0 6 -2 10 -4 10 -3 0
-8 -4 -11 -10z"/>
<path d="M1495 195 c3 -16 10 -32 15 -35 7 -4 23 -52 25 -72 0 -3 12 -16 27
-27 15 -12 30 -30 33 -41 4 -13 15 -20 31 -20 13 0 24 3 24 6 0 6 -135 190
-153 209 -6 6 -7 -1 -2 -20z"/>
<path d="M3832 148 c-7 -7 -12 -20 -12 -30 0 -10 -6 -21 -14 -24 -8 -3 -12
-14 -9 -27 3 -16 2 -18 -5 -9 -7 11 -10 10 -14 -5 -3 -10 -9 -26 -13 -35 -6
-15 -2 -18 29 -18 20 0 36 5 36 10 0 6 -4 10 -8 10 -5 0 -7 14 -4 30 4 25 8
29 24 24 17 -5 19 -3 10 12 -7 13 -7 25 0 37 12 23 -3 42 -20 25z"/>
<path d="M1882 120 c-12 -19 -22 -38 -22 -43 0 -22 44 -76 64 -77 8 0 7 12
-12 110 l-8 45 -22 -35z"/>
<path d="M3710 10 c0 -5 5 -10 10 -10 6 0 10 5 10 10 0 6 -4 10 -10 10 -5 0
-10 -4 -10 -10z"/>
</g>
</svg>
