<?xml version="1.0" standalone="no"?>
<!DOCTYPE svg PUBLIC "-//W3C//DTD SVG 20010904//EN"
 "http://www.w3.org/TR/2001/REC-SVG-20010904/DTD/svg10.dtd">
<svg version="1.0" xmlns="http://www.w3.org/2000/svg"
 width="1115.000000pt" height="1115.000000pt" viewBox="0 0 1115.000000 1115.000000"
 preserveAspectRatio="xMidYMid meet">
<metadata>
Created by potrace 1.14, written by Peter Selinger 2001-2017
</metadata>
<g transform="translate(0.000000,1115.000000) scale(0.100000,-0.100000)"
fill="#000000" stroke="none">
<path d="M4665 10950 c-464 -30 -797 -90 -988 -179 -55 -26 -59 -29 -32 -30
17 0 88 15 159 34 72 19 131 33 132 32 2 -1 -95 -49 -214 -106 -327 -156 -510
-264 -819 -484 -135 -96 -263 -197 -263 -208 0 -5 26 3 58 17 31 14 104 45
162 69 58 23 122 50 143 59 50 22 45 14 -75 -102 -205 -199 -748 -967 -748
-1059 0 -36 35 -29 59 13 23 39 200 235 267 297 34 30 17 0 -93 -165 -139
-210 -279 -476 -328 -621 -38 -113 -72 -330 -89 -564 -3 -45 0 -65 10 -74 19
-16 44 6 44 39 0 14 19 73 43 131 33 82 43 100 45 79 2 -15 -4 -56 -13 -90
-33 -124 -45 -184 -55 -278 -6 -52 -17 -153 -25 -225 -24 -209 -47 -499 -43
-546 3 -45 23 -59 39 -29 4 8 38 66 74 128 51 86 71 112 83 108 11 -4 54 26
126 87 159 135 154 133 108 41 -22 -44 -47 -86 -56 -93 -18 -15 -22 -41 -6
-41 5 0 25 14 45 31 19 17 35 29 35 26 0 -21 -118 -249 -163 -314 -31 -45 -53
-84 -48 -87 13 -8 52 2 71 19 9 8 20 15 23 15 11 0 8 -49 -7 -130 -25 -130
-26 -330 -3 -330 20 0 64 51 71 84 15 61 15 14 2 -100 -24 -193 -28 -324 -11
-324 7 0 17 5 20 10 12 20 25 -2 25 -43 0 -23 7 -66 15 -96 l14 -53 -42 5
c-54 7 -132 -8 -167 -33 -38 -27 -87 -103 -106 -165 -25 -81 -46 -299 -39
-399 9 -131 33 -278 62 -386 14 -52 31 -126 38 -165 20 -103 41 -160 95 -250
26 -44 62 -114 80 -155 40 -91 46 -100 139 -220 41 -52 93 -124 117 -160 70
-108 166 -185 265 -211 41 -11 51 -10 87 8 l40 19 12 -95 c10 -79 123 -556
161 -681 25 -81 152 -393 192 -471 188 -365 352 -650 491 -849 44 -63 101
-150 128 -193 53 -87 150 -213 246 -321 34 -39 92 -106 128 -148 36 -43 98
-105 137 -139 40 -34 104 -90 142 -125 67 -61 143 -121 307 -242 66 -49 127
-88 248 -155 104 -59 435 -208 480 -216 176 -33 486 -41 674 -16 181 24 311
70 396 142 85 71 641 759 700 866 15 26 30 44 35 40 4 -5 6 -1 2 8 -3 10 11
37 36 70 22 30 68 95 101 144 52 79 126 181 214 295 116 151 270 414 323 552
22 57 89 204 149 328 159 329 204 495 215 795 3 94 13 211 21 260 8 50 22 168
32 264 l17 174 52 12 c62 14 93 33 127 78 52 68 106 240 141 447 9 52 33 169
55 260 62 265 79 342 85 400 4 30 18 112 31 183 31 165 30 225 -7 469 -34 228
-48 271 -108 351 -50 66 -95 97 -140 97 l-32 0 6 138 c10 238 10 354 1 465
l-9 107 24 0 c13 0 31 5 39 10 13 8 13 10 -2 10 -9 0 -30 17 -47 37 -28 34
-31 45 -31 104 0 36 -7 88 -15 115 -9 27 -18 61 -20 76 -2 15 -10 40 -18 55
-13 26 -57 155 -57 168 0 3 14 5 30 5 41 0 37 10 -14 41 -41 25 -44 30 -51 84
-6 50 -25 120 -50 180 -8 18 -7 18 8 6 21 -17 21 -12 6 79 -6 36 -17 111 -24
167 -11 84 -20 112 -48 161 -19 33 -38 75 -42 93 -9 44 -85 205 -122 261 -16
24 -33 51 -36 61 -6 16 -4 16 23 2 36 -19 50 -19 50 0 0 8 -33 38 -72 68 -76
56 -117 96 -88 85 32 -12 132 -30 137 -24 14 14 -11 36 -79 68 l-73 35 -49
134 c-26 74 -71 175 -99 224 -28 50 -50 96 -50 103 0 6 -9 12 -19 12 -17 0
-18 1 -2 25 21 32 9 33 -71 5 -32 -11 -61 -20 -64 -20 -11 1 104 70 117 70 6
0 12 5 12 10 0 13 -45 13 -93 -1 -64 -17 -53 -4 32 42 45 24 81 50 81 57 0 17
-15 13 -284 -80 -126 -43 -230 -77 -231 -76 -2 2 5 35 15 73 10 39 21 120 25
180 7 106 6 114 -25 215 -18 58 -46 124 -61 147 -28 40 -152 144 -290 244
-169 122 -587 306 -930 410 -199 60 -407 100 -694 135 -147 18 -703 26 -900
14z m1915 -1892 c74 -11 89 -15 68 -21 -16 -4 -28 -12 -28 -17 0 -13 12 -13
45 0 43 16 122 -10 193 -64 34 -26 64 -50 66 -55 3 -4 46 -8 96 -9 50 -1 112
-7 138 -13 60 -13 172 -70 172 -86 0 -7 7 -13 16 -13 32 0 270 -113 303 -143
35 -33 131 -164 131 -178 0 -5 -10 -8 -21 -6 -36 4 -32 -18 8 -46 21 -14 52
-38 68 -52 l30 -27 -33 17 c-18 9 -37 13 -42 10 -21 -13 -8 -36 45 -75 30 -22
55 -42 55 -45 0 -2 -16 -1 -35 2 -28 4 -35 2 -35 -11 0 -9 8 -16 18 -16 44 0
152 -157 152 -221 0 -11 9 -23 21 -27 20 -8 19 -10 -20 -85 -55 -105 -54 -137
2 -81 14 14 30 23 36 20 5 -3 28 -46 50 -94 23 -48 56 -116 75 -152 32 -61 77
-188 91 -254 6 -27 6 -28 26 -10 19 17 20 17 17 -47 -1 -35 2 -79 6 -97 8 -32
7 -33 -13 -21 -29 19 -38 3 -18 -30 22 -37 21 -44 -3 -36 -33 11 -24 -21 16
-51 31 -24 94 -103 94 -118 0 -3 -7 -3 -16 1 -14 5 -15 3 -6 -14 6 -11 18 -25
26 -32 9 -8 13 -17 11 -22 -3 -5 10 -32 30 -60 21 -31 35 -63 35 -81 0 -25 -2
-28 -14 -19 -8 7 -18 26 -21 42 -4 16 -11 29 -16 29 -18 0 -9 -64 16 -106 23
-39 23 -42 5 -37 -24 6 -25 -5 -4 -35 8 -12 10 -22 5 -22 -17 0 -13 -25 8 -44
10 -10 24 -38 31 -64 6 -26 17 -56 24 -67 10 -15 11 -38 4 -95 -9 -70 -13 -78
-54 -120 -24 -25 -44 -51 -44 -57 0 -23 21 -24 51 -2 l30 21 -4 -56 c-6 -72
10 -74 47 -5 16 28 29 49 30 47 2 -2 -1 -52 -6 -113 -10 -121 -5 -479 7 -508
5 -11 16 -17 29 -15 21 3 21 5 17 244 -4 265 -8 241 57 308 12 13 22 36 22 51
0 22 3 26 18 20 44 -17 72 -18 72 -2 0 9 -12 23 -27 31 -16 8 -21 15 -13 16
21 0 79 -37 86 -55 4 -8 12 -15 20 -15 25 0 15 39 -20 78 l-35 38 22 14 c12 8
37 15 56 15 39 0 53 20 21 30 -20 6 -20 7 2 26 l23 19 39 -43 c55 -60 71 -104
96 -257 11 -74 25 -157 31 -183 14 -71 11 -243 -6 -317 -8 -36 -20 -101 -26
-145 -6 -44 -17 -109 -25 -145 -7 -36 -21 -103 -30 -150 -37 -199 -135 -482
-212 -613 -29 -48 -52 -90 -52 -93 0 -10 -75 -114 -82 -114 -5 0 -8 59 -8 131
0 124 -13 209 -32 209 -4 0 -8 -10 -9 -22 0 -13 -2 -48 -4 -78 -2 -30 -9 -147
-15 -260 -13 -251 -27 -418 -46 -530 -8 -47 -14 -114 -14 -150 -1 -36 -7 -110
-14 -165 -12 -92 -18 -110 -79 -230 -37 -71 -99 -188 -138 -260 -39 -71 -104
-195 -145 -273 -77 -149 -96 -177 -254 -382 -52 -67 -114 -149 -136 -182 -89
-127 -308 -368 -631 -693 -186 -187 -376 -373 -423 -412 -47 -40 -128 -110
-180 -154 -52 -45 -124 -101 -160 -124 -140 -91 -381 -197 -490 -214 -87 -14
-346 -31 -481 -31 l-109 0 -98 56 c-114 66 -135 81 -279 194 -121 95 -423 358
-423 369 0 4 -39 49 -87 101 -117 129 -269 321 -309 391 -30 54 -115 181 -169
254 -73 98 -209 333 -362 625 -30 58 -61 112 -68 120 -13 16 -68 142 -147 338
-49 124 -101 299 -139 467 -11 50 -29 122 -41 160 -22 75 -62 316 -79 480 -12
120 -49 277 -66 283 -17 5 -17 -115 -1 -221 10 -67 10 -80 -4 -93 -21 -21 -82
-28 -172 -19 l-75 7 -79 111 c-44 62 -105 143 -136 182 -33 42 -71 106 -95
160 -21 49 -61 127 -89 173 -34 56 -56 106 -67 154 -9 39 -23 87 -31 107 -19
44 -47 192 -69 371 -18 138 -16 342 4 420 28 110 41 143 65 179 43 61 109 80
200 56 70 -18 216 -94 216 -112 0 -7 7 -13 15 -13 9 0 20 -19 28 -47 13 -44
17 -48 45 -47 27 2 32 -2 39 -35 l9 -36 20 32 20 32 11 -42 c8 -26 12 -142 13
-307 1 -341 7 -382 54 -364 13 5 15 18 11 77 -3 40 -10 176 -15 302 -6 127
-13 254 -16 283 -6 47 -5 52 13 52 31 0 34 11 13 45 -11 18 -31 76 -45 131
-22 81 -24 102 -14 121 8 16 10 45 4 100 -12 122 -10 135 18 178 38 58 89 212
77 235 -12 22 -3 55 33 113 22 36 28 55 23 78 -3 17 1 48 10 72 10 28 18 108
24 236 6 107 13 203 16 213 3 11 0 26 -7 34 -9 11 -8 26 6 69 13 44 15 61 6
87 -7 20 -9 60 -5 107 6 65 13 84 54 150 60 96 102 182 124 247 9 28 30 64 46
79 36 34 42 80 10 70 -16 -5 -18 -3 -12 12 18 44 51 99 68 114 33 28 321 207
381 237 32 16 92 47 133 68 83 44 141 71 465 216 341 154 596 250 760 289 50
11 173 43 275 71 290 79 411 93 795 92 214 -1 352 -7 415 -16z m-4279 -1709
c-10 -24 -36 -60 -57 -79 l-38 -35 19 30 c32 52 90 134 93 131 1 -2 -6 -23
-17 -47z"/>
<path d="M7045 6540 c-164 -21 -198 -30 -450 -110 -230 -74 -294 -90 -363 -90
-47 0 -56 4 -83 32 -28 31 -29 32 -29 9 0 -33 65 -152 103 -189 l32 -31 85 10
c47 6 128 19 180 29 157 31 287 50 495 70 55 5 315 10 577 12 362 2 478 6 478
15 0 14 -36 79 -59 107 -22 26 -156 88 -271 125 l-94 31 -231 -1 c-157 -1
-274 -7 -370 -19z"/>
<path d="M5000 6221 c0 -5 -13 -23 -29 -40 -28 -30 -32 -31 -108 -31 -43 0
-125 7 -183 15 -261 36 -414 48 -650 49 -291 1 -387 -12 -503 -70 -201 -101
-438 -307 -398 -347 7 -7 34 1 88 25 187 84 394 140 573 153 47 3 142 13 211
22 216 26 584 10 792 -36 92 -20 141 21 197 165 17 44 34 85 37 92 3 7 -2 12
-11 12 -9 0 -16 -4 -16 -9z"/>
<path d="M8868 6011 c-90 -46 -225 -138 -238 -161 -24 -44 -8 -53 38 -20 34
26 42 28 42 15 0 -10 6 -15 13 -12 62 23 68 20 38 -21 -39 -55 -51 -127 -51
-298 0 -236 39 -414 91 -414 30 0 33 25 11 78 -54 128 -66 493 -20 649 9 31
20 45 46 58 19 9 38 12 42 8 10 -10 40 -218 40 -273 0 -46 21 -63 47 -37 15
14 15 29 4 134 -7 65 -23 149 -35 187 l-23 68 34 15 c23 9 33 19 31 31 -5 27
-48 25 -110 -7z"/>
<path d="M7230 5983 c-169 -28 -228 -40 -370 -79 -342 -94 -520 -155 -520
-180 0 -8 3 -14 6 -14 10 0 246 61 353 91 149 42 141 45 124 -53 -12 -72 -12
-103 0 -243 17 -180 34 -246 86 -324 53 -81 102 -104 207 -99 63 3 94 11 137
32 67 32 136 88 156 124 19 35 9 267 -17 387 -35 164 -51 207 -94 251 -25 26
-36 44 -29 48 17 11 296 -43 376 -71 39 -14 96 -39 129 -55 64 -32 86 -31 86
5 0 18 -13 29 -67 56 -105 52 -195 80 -348 106 -136 24 -163 27 -215 18z
m-239 -129 c36 -33 -18 -88 -77 -76 -20 4 -24 10 -24 38 0 27 5 37 23 44 34
13 59 12 78 -6z"/>
<path d="M5280 5935 c6 -8 20 -17 31 -20 10 -4 19 -15 19 -26 0 -11 12 -48 26
-82 l27 -62 -6 -252 c-3 -139 -2 -253 3 -253 27 0 101 275 103 383 3 135 -60
260 -154 308 -47 23 -67 25 -49 4z"/>
<path d="M6160 5834 c-31 -72 -52 -154 -45 -172 5 -12 14 2 30 48 12 36 32 84
44 108 21 41 21 62 0 62 -5 0 -18 -20 -29 -46z"/>
<path d="M4045 5794 c-164 -42 -364 -112 -507 -177 -61 -28 -78 -40 -78 -57 0
-36 28 -34 138 13 177 75 420 157 470 157 l23 0 -20 -27 c-41 -57 -71 -243
-71 -441 0 -131 13 -167 81 -225 93 -80 255 -121 346 -86 33 12 109 83 128
120 36 68 46 456 14 551 -7 21 -10 40 -8 43 9 8 170 -40 283 -84 115 -45 161
-50 161 -16 0 40 -286 140 -558 195 -145 30 -352 47 -402 34z m166 -64 c40
-22 11 -74 -47 -85 -47 -9 -58 5 -43 54 11 36 16 41 41 41 16 0 38 -5 49 -10z"/>
<path d="M2280 5671 c0 -18 36 -55 62 -63 7 -3 2 -24 -15 -59 -44 -89 -70
-269 -39 -269 4 0 18 44 30 98 22 98 65 202 83 202 6 0 8 -4 5 -9 -7 -10 24
-37 98 -88 l46 -33 -6 -82 c-3 -46 -10 -99 -15 -118 -36 -147 -28 -443 16
-573 29 -85 81 -167 105 -167 31 0 33 35 6 77 -76 115 -110 320 -86 514 7 57
16 151 19 209 l6 105 44 -58 43 -59 47 7 c56 8 61 11 61 34 0 35 -179 194
-308 275 -31 19 -178 76 -196 76 -3 0 -6 -9 -6 -19z"/>
<path d="M8715 4654 c-28 -15 -71 -61 -63 -69 6 -7 132 60 136 73 5 17 -36 14
-73 -4z"/>
<path d="M2806 4370 c-18 -17 -41 -45 -50 -64 -18 -38 -21 -102 -6 -111 18
-11 40 16 40 47 0 41 24 82 65 114 19 14 35 30 35 35 0 20 -52 7 -84 -21z"/>
<path d="M5206 4347 c-15 -25 -38 -81 -52 -124 -14 -43 -66 -163 -114 -268
-97 -206 -109 -247 -110 -345 0 -66 7 -84 75 -195 32 -53 124 -116 274 -187
152 -73 321 -133 400 -144 49 -6 174 27 256 68 39 20 94 66 95 80 0 17 -97 37
-209 43 -107 6 -142 12 -250 46 -181 58 -229 79 -326 144 -86 58 -245 219
-245 248 0 7 34 84 76 172 93 198 124 276 154 386 16 62 19 92 12 104 -8 16
-13 12 -36 -28z"/>
<path d="M7285 2836 c-126 -131 -313 -231 -559 -301 -177 -50 -223 -56 -474
-59 -236 -3 -359 -18 -369 -43 -3 -8 -2 -18 3 -23 6 -6 135 -6 324 0 279 8
327 12 421 34 142 33 273 77 384 131 212 102 411 272 388 333 -11 26 -41 7
-118 -72z"/>
<path d="M5485 2404 c-227 -55 -367 -62 -850 -41 -47 2 -50 1 -50 -23 0 -30
17 -34 200 -50 227 -21 488 -1 726 55 155 36 187 50 176 79 -9 22 -41 19 -202
-20z"/>
</g>
</svg>
