<svg xmlns="http://www.w3.org/2000/svg" role="img" width="24" height="24"><rect id="backgroundrect" width="100%" height="100%" x="0" y="0" fill="none" stroke="none" class="" style=""/><title>Instagram icon</title><g class="currentLayer" style=""><title>Layer 1</title><path d="M12,0 C8.74,0 8.333,0.015000000000000003 7.053,0.07200000000000001 C5.775,0.132 4.905,0.3330000000000001 4.14,0.6300000000000001 c-0.789,0.30600000000000005 -1.459,0.7170000000000001 -2.126,1.3840000000000001 S0.935,3.35 0.6300000000000001,4.14 C0.3330000000000001,4.905 0.131,5.775 0.07200000000000001,7.053 C0.012000000000000002,8.333 0,8.74 0,12 s0.015000000000000003,3.6670000000000003 0.07200000000000001,4.947 c0.06000000000000001,1.2770000000000001 0.261,2.148 0.558,2.9130000000000003 c0.30600000000000005,0.788 0.7170000000000001,1.459 1.3840000000000001,2.126 c0.6670000000000001,0.6660000000000001 1.336,1.079 2.126,1.3840000000000001 c0.7660000000000001,0.29600000000000004 1.6360000000000001,0.49900000000000005 2.9130000000000003,0.558 C8.333,23.988 8.74,24 12,24 s3.6670000000000003,-0.015000000000000003 4.947,-0.07200000000000001 c1.2770000000000001,-0.06000000000000001 2.148,-0.262 2.9130000000000003,-0.558 c0.788,-0.30600000000000005 1.459,-0.7180000000000001 2.126,-1.3840000000000001 c0.6660000000000001,-0.6670000000000001 1.079,-1.335 1.3840000000000001,-2.126 c0.29600000000000004,-0.7650000000000001 0.49900000000000005,-1.6360000000000001 0.558,-2.9130000000000003 c0.06000000000000001,-1.28 0.07200000000000001,-1.6870000000000003 0.07200000000000001,-4.947 s-0.015000000000000003,-3.6670000000000003 -0.07200000000000001,-4.947 c-0.06000000000000001,-1.2770000000000001 -0.262,-2.149 -0.558,-2.9130000000000003 c-0.30600000000000005,-0.789 -0.7180000000000001,-1.459 -1.3840000000000001,-2.126 C21.319,1.347 20.651,0.935 19.86,0.6300000000000001 c-0.7650000000000001,-0.29700000000000004 -1.6360000000000001,-0.49900000000000005 -2.9130000000000003,-0.558 C15.667,0.012000000000000002 15.26,0 12,0 zm0,2.16 c3.203,0 3.585,0.016000000000000004 4.85,0.07100000000000001 c1.17,0.05500000000000001 1.8050000000000002,0.24900000000000003 2.227,0.41500000000000004 c0.562,0.21700000000000003 0.9600000000000001,0.47700000000000004 1.3820000000000001,0.8960000000000001 c0.41900000000000004,0.42000000000000004 0.6790000000000002,0.8190000000000001 0.8960000000000001,1.381 c0.16400000000000003,0.42200000000000004 0.36000000000000004,1.057 0.41300000000000003,2.227 c0.05700000000000001,1.266 0.07,1.6460000000000001 0.07,4.85 s-0.015000000000000003,3.585 -0.07400000000000001,4.85 c-0.06100000000000001,1.17 -0.256,1.8050000000000002 -0.42100000000000004,2.227 c-0.22400000000000003,0.562 -0.47900000000000004,0.9600000000000001 -0.8990000000000001,1.3820000000000001 c-0.41900000000000004,0.41900000000000004 -0.8240000000000001,0.6790000000000002 -1.3800000000000001,0.8960000000000001 c-0.42000000000000004,0.16400000000000003 -1.065,0.36000000000000004 -2.235,0.41300000000000003 c-1.274,0.05700000000000001 -1.649,0.07 -4.859,0.07 c-3.211,0 -3.5860000000000003,-0.015000000000000003 -4.859,-0.07400000000000001 c-1.171,-0.06100000000000001 -1.816,-0.256 -2.236,-0.42100000000000004 c-0.5690000000000001,-0.22400000000000003 -0.9600000000000001,-0.47900000000000004 -1.379,-0.8990000000000001 c-0.42100000000000004,-0.41900000000000004 -0.6900000000000002,-0.8240000000000001 -0.9,-1.3800000000000001 c-0.16500000000000004,-0.42000000000000004 -0.35900000000000004,-1.065 -0.42000000000000004,-2.235 c-0.04500000000000001,-1.26 -0.06100000000000001,-1.649 -0.06100000000000001,-4.844 c0,-3.196 0.016000000000000004,-3.5860000000000003 0.06100000000000001,-4.861 c0.06100000000000001,-1.17 0.255,-1.814 0.42000000000000004,-2.234 c0.21000000000000002,-0.5700000000000001 0.47900000000000004,-0.9600000000000001 0.9,-1.381 c0.41900000000000004,-0.41900000000000004 0.81,-0.6890000000000002 1.379,-0.8980000000000001 c0.42000000000000004,-0.16600000000000004 1.051,-0.36100000000000004 2.221,-0.42100000000000004 c1.275,-0.04500000000000001 1.6500000000000001,-0.06000000000000001 4.859,-0.06000000000000001 l0.04500000000000001,0.030000000000000006 zm0,3.678 c-3.4050000000000002,0 -6.162,2.7600000000000002 -6.162,6.162 c0,3.4050000000000002 2.7600000000000002,6.162 6.162,6.162 c3.4050000000000002,0 6.162,-2.7600000000000002 6.162,-6.162 c0,-3.4050000000000002 -2.7600000000000002,-6.162 -6.162,-6.162 zM12,16 c-2.21,0 -4,-1.79 -4,-4 s1.79,-4 4,-4 s4,1.79 4,4 s-1.79,4 -4,4 zm7.846,-10.405 c0,0.795 -0.6460000000000001,1.44 -1.44,1.44 c-0.795,0 -1.44,-0.6460000000000001 -1.44,-1.44 c0,-0.794 0.6460000000000001,-1.439 1.44,-1.439 c0.793,-0.0010000000000000002 1.44,0.6450000000000001 1.44,1.439 z" id="svg_1" class="" fill="#ffffff" fill-opacity="1"/></g></svg>