<svg width="24" height="24" xmlns="https://www.w3.org/2000/svg">
 <title>YouTube icon</title>
 <defs>
  <filter height="200%" width="200%" y="-50%" x="-50%" id="svg_1_blur">
   <feGaussianBlur stdDeviation="0" in="SourceGraphic"/>
  </filter>
 </defs>
 <g>
  <title>background</title>
  <rect fill="none" id="canvas_background" height="602" width="802" y="-1" x="-1"/>
 </g>
 <g>
  <title>Layer 1</title>
  <path fill="#ffffff" filter="url(#svg_1_blur)" stroke-width="0" id="svg_1" d="m23.498,6.641a3.016,3.016 0 0 0 -2.122,-2.136c-1.871,-0.505 -9.376,-0.505 -9.376,-0.505s-7.505,0 -9.377,0.505a3.017,3.017 0 0 0 -2.121,2.136c-0.502,1.884 -0.502,5.814 -0.502,5.814s0,3.93 0.502,5.814a3.016,3.016 0 0 0 2.122,2.136c1.871,0.505 9.376,0.505 9.376,0.505s7.505,0 9.377,-0.505a3.015,3.015 0 0 0 2.122,-2.136c0.501,-1.884 0.501,-5.814 0.501,-5.814s0,-3.93 -0.502,-5.814zm-13.953,9.382l0,-7.136l6.273,3.568l-6.273,3.568z"/>
 </g>
</svg>