<?xml version="1.0" encoding="utf-8"?>
<!-- Generator: Adobe Illustrator 22.0.1, SVG Export Plug-In . SVG Version: 6.00 Build 0)  -->
<svg version="1.1" id="Laag_1" xmlns="http://www.w3.org/2000/svg" xmlns:xlink="http://www.w3.org/1999/xlink" x="0px" y="0px"
   viewBox="0 0 583.074 518.115" enable-background="new 0 0 583.074 518.115" xml:space="preserve">
<filter id="dropshadow" height="130%">
  <feGaussianBlur in="SourceAlpha" stdDeviation="3"/> <!-- stdDeviation is how much to blur -->
  <feOffset dx="2" dy="2" result="offsetblur"/> <!-- how much to offset -->
  <feComponentTransfer>
    <feFuncA type="linear" slope="0.5"/> <!-- slope is the opacity of the shadow -->
  </feComponentTransfer>
  <feMerge> 
    <feMergeNode/> <!-- this contains the offset blurred image -->
    <feMergeNode in="SourceGraphic"/> <!-- this contains the element that the filter is applied to -->
  </feMerge>
</filter>
<g id="Logo_3_">
  <path style="filter:url(#dropshadow)" fill="#FFFFFF" d="M223.375,231.746c-5.378,5.038-11.566,9.077-18.566,12.12c-7.66,3.33-15.875,4.995-24.643,4.995
    c-8.659,0-16.818-1.665-24.477-4.995c-7.66-3.33-14.348-7.852-20.064-13.57c-5.719-5.716-10.241-12.405-13.571-20.064
    c-3.33-7.66-4.995-15.874-4.995-24.644c0-8.658,1.665-16.844,4.995-24.56c3.33-7.714,7.852-14.429,13.571-20.148
    c5.716-5.716,12.404-10.24,20.064-13.57c7.66-3.33,15.818-4.995,24.477-4.995c8.768,0,16.984,1.665,24.643,4.995
    c7.052,3.066,13.279,7.144,18.685,12.232l-14.751,17.424c-0.109-0.117-0.219-0.234-0.33-0.35c-3.601-3.772-7.81-6.799-12.629-9.075
    c-4.818-2.273-9.998-3.413-15.535-3.413c-5.539,0-10.719,1.14-15.537,3.413c-4.819,2.277-9.028,5.303-12.629,9.075
    c-3.601,3.775-6.452,8.187-8.557,13.238c-2.105,5.052-3.156,10.297-3.156,15.735c0,5.552,1.051,10.823,3.156,15.818
    c2.105,4.995,4.956,9.408,8.557,13.238c3.601,3.829,7.81,6.884,12.629,9.158c4.818,2.277,9.998,3.413,15.537,3.413
    c5.537,0,10.717-1.137,15.535-3.413c4.819-2.274,9.028-5.329,12.629-9.158c0.104-0.111,0.208-0.222,0.311-0.334L223.375,231.746z"
    />
  <path style="filter:url(#dropshadow)" fill="#FFFFFF" d="M171.767,393.355h-48.049V271.469h48.049c17.4,0,31.696,5.107,42.894,15.319
    c5.984,5.44,10.498,12.018,13.547,19.732c3.05,7.717,4.574,16.346,4.574,25.892c0,9.658-1.524,18.345-4.574,26.059
    c-3.049,7.717-7.563,14.294-13.547,19.732c-5.433,4.995-11.781,8.77-19.04,11.323C188.363,392.08,180.41,393.355,171.767,393.355z
     M147.029,372.708h24.81c4.329,0,8.713-0.5,13.154-1.498c4.439-0.999,8.464-2.969,12.072-5.912
    c3.607-2.94,6.577-7.019,8.908-12.239c2.331-5.216,3.497-12.043,3.497-20.48c0-8.434-1.166-15.29-3.497-20.564
    c-2.331-5.271-5.328-9.351-8.991-12.239c-3.664-2.885-7.717-4.829-12.155-5.828c-4.442-0.998-8.771-1.498-12.988-1.498h-24.81
    V372.708z"/>
  <path style="filter:url(#dropshadow)" fill="#FFFFFF" d="M298.855,248.861c-8.659,0-16.818-1.665-24.477-4.995c-7.66-3.33-14.348-7.852-20.064-13.57
    c-5.719-5.716-10.241-12.405-13.571-20.064c-3.33-7.66-4.995-15.874-4.995-24.644c0-8.658,1.665-16.844,4.995-24.56
    c3.33-7.714,7.852-14.429,13.571-20.148c5.716-5.716,12.404-10.24,20.064-13.57c7.66-3.33,15.818-4.995,24.477-4.995
    c8.768,0,16.984,1.665,24.643,4.995c7.66,3.33,14.346,7.855,20.064,13.57c5.716,5.719,10.241,12.434,13.571,20.148
    c3.33,7.717,4.995,15.902,4.995,24.56c0,8.77-1.665,16.984-4.995,24.644c-3.33,7.659-7.855,14.348-13.571,20.064
    c-5.718,5.719-12.404,10.24-20.064,13.57C315.839,247.196,307.623,248.861,298.855,248.861z M298.938,144.127
    c-5.539,0-10.719,1.14-15.537,3.413c-4.819,2.277-9.028,5.303-12.629,9.075c-3.601,3.775-6.452,8.187-8.557,13.238
    c-2.105,5.052-3.156,10.297-3.156,15.735c0,5.552,1.051,10.823,3.156,15.818c2.105,4.995,4.956,9.408,8.557,13.238
    c3.601,3.829,7.81,6.884,12.629,9.158c4.818,2.277,9.998,3.413,15.537,3.413c5.537,0,10.717-1.137,15.535-3.413
    c4.819-2.274,9.028-5.329,12.629-9.158c3.601-3.83,6.452-8.243,8.557-13.238c2.105-4.995,3.159-10.266,3.159-15.818
    c0-5.438-1.054-10.682-3.159-15.735c-2.105-5.051-4.956-9.463-8.557-13.238c-3.601-3.772-7.81-6.799-12.629-9.075
    C309.655,145.267,304.475,144.127,298.938,144.127z"/>
  <polygon style="filter:url(#dropshadow)" fill="#FFFFFF" points="460.466,269.879 399.023,341.904 337.748,269.874 337.748,305.419 399.023,377.536 
    437.155,331.746 437.155,393.355 460.466,393.355   "/>
  <polygon style="filter:url(#dropshadow)" fill="#FFFFFF" points="255.884,269.876 255.884,305.172 313.18,373.04 255.884,373.04 255.884,393.355 330.33,393.355 
    334.86,393.355 360.72,393.355   "/>
</g>
</svg>
